Exact Audio Copy V0.99 prebeta 5 from 4. May 2009

EAC extraction logfile from 2. February 2011, 14:41

Ajattara / Murhat

Used drive  : TSSTcorpCDDVDW SH-S223F   Adapter: 5  ID: 1

Read mode               : Secure
Utilize accurate stream : Yes
Defeat audio cache      : Yes
Make use of C2 pointers : No

Read offset correction                      : 6
Overread into Lead-In and Lead-Out          : No
Fill up missing offset samples with silence : Yes
Delete leading and trailing silent blocks   : No
Null samples used in CRC calculations       : Yes
Used interface                              : Native Win32 interface for Win NT & 2000
Gap handling                                : Appended to previous track

Used output format              : User Defined Encoder
Selected bitrate                : 320 kBit/s
Quality                         : High
Add ID3 tag                     : No
Command line compressor         : C:\Program Files (x86)\Exact Audio Copy\Flac\flac.exe
Additional command line options : -V -8 -T "artist=%a" -T "title=%t" -T "album=%g" -T "date=%y" -T "tracknumber=%n" -T "genre=%m" %s


TOC of the extracted CD

     Track |   Start  |  Length  | Start sector | End sector 
    ---------------------------------------------------------
        1  |  0:00.00 |  3:02.19 |         0    |    13668   
        2  |  3:02.19 |  3:34.59 |     13669    |    29777   
        3  |  6:37.03 |  4:02.50 |     29778    |    47977   
        4  | 10:39.53 |  2:58.46 |     47978    |    61373   
        5  | 13:38.24 |  3:19.66 |     61374    |    76364   
        6  | 16:58.15 |  3:22.68 |     76365    |    91582   
        7  | 20:21.08 |  3:26.17 |     91583    |   107049   
        8  | 23:47.25 |  3:16.60 |    107050    |   121809   
        9  | 27:04.10 |  4:46.12 |    121810    |   143271   


Track  1

     Filename D:\Music\Ajattara - 2011-02-02 - Murhat [FLAC]\01 - Ajattara - Kunnes Taivas Meidät Erottaa.wav

     Pre-gap length  0:00:02.00

     Peak level 98.8 %
     Track quality 100.0 %
     Test CRC 6F82F040
     Copy CRC 6F82F040
     Track not present in AccurateRip database
     Copy OK

Track  2

     Filename D:\Music\Ajattara - 2011-02-02 - Murhat [FLAC]\02 - Ajattara - Ihmisen Luku.wav

     Peak level 98.8 %
     Track quality 100.0 %
     Test CRC 859B1364
     Copy CRC 859B1364
     Track not present in AccurateRip database
     Copy OK

Track  3

     Filename D:\Music\Ajattara - 2011-02-02 - Murhat [FLAC]\03 - Ajattara - H.A.I..wav

     Peak level 98.8 %
     Track quality 100.0 %
     Test CRC 5DEE3255
     Copy CRC 5DEE3255
     Track not present in AccurateRip database
     Copy OK

Track  4

     Filename D:\Music\Ajattara - 2011-02-02 - Murhat [FLAC]\04 - Ajattara - Aura.wav

     Peak level 98.8 %
     Track quality 100.0 %
     Test CRC 46730A09
     Copy CRC 46730A09
     Track not present in AccurateRip database
     Copy OK

Track  5

     Filename D:\Music\Ajattara - 2011-02-02 - Murhat [FLAC]\05 - Ajattara - Sokea Liha.wav

     Peak level 98.8 %
     Track quality 99.9 %
     Test CRC 3BB616D1
     Copy CRC 3BB616D1
     Track not present in AccurateRip database
     Copy OK

Track  6

     Filename D:\Music\Ajattara - 2011-02-02 - Murhat [FLAC]\06 - Ajattara - Routalempi.wav

     Peak level 98.8 %
     Track quality 100.0 %
     Test CRC A2176E3C
     Copy CRC A2176E3C
     Track not present in AccurateRip database
     Copy OK

Track  7

     Filename D:\Music\Ajattara - 2011-02-02 - Murhat [FLAC]\07 - Ajattara - Murheiden Kilta.wav

     Peak level 98.8 %
     Track quality 99.9 %
     Test CRC 70DF3029
     Copy CRC 70DF3029
     Track not present in AccurateRip database
     Copy OK

Track  8

     Filename D:\Music\Ajattara - 2011-02-02 - Murhat [FLAC]\08 - Ajattara - Apilas.wav

     Peak level 98.8 %
     Track quality 100.0 %
     Test CRC 0C317770
     Copy CRC 0C317770
     Track not present in AccurateRip database
     Copy OK

Track  9

     Filename D:\Music\Ajattara - 2011-02-02 - Murhat [FLAC]\09 - Ajattara - Veljet.wav

     Peak level 98.8 %
     Track quality 100.0 %
     Test CRC 88011513
     Copy CRC 88011513
     Track not present in AccurateRip database
     Copy OK


None of the tracks are present in the AccurateRip database

No errors occurred

End of status report
